<svg width="340" height="81" viewBox="0 0 340 81" fill="none" xmlns="http://www.w3.org/2000/svg">
<path fill-rule="evenodd" clip-rule="evenodd" d="M28.1724 32.3283C17.7029 29.2313 18.8867 56.1933 31.0919 48.8063C34.6144 46.6741 39.2571 43.6096 44.8144 43.6096C49.8278 43.6096 52.5708 49.0412 57.5843 49.0412C64.8059 48.2552 64.4955 34.546 59.617 34.1023C54.4871 34.1023 50.2833 42.7658 43.6444 40.7299C37.9123 38.9724 32.0294 33.4689 28.1724 32.3283ZM29.5894 27.982C34.9371 29.5638 39.5953 34.6813 44.9946 36.3367C45.4342 36.4715 45.808 36.4748 46.2504 36.3548C47.2839 36.0749 48.4677 35.2031 49.3162 34.5609C52.4484 32.1899 55.3287 29.554 59.5014 29.554H59.7103L59.9184 29.5731C70.6696 30.5506 70.5657 52.5714 57.9815 53.9411L57.7333 53.9682H57.4225C57.025 53.9682 56.6259 53.9564 56.2313 53.9075C52.9939 53.5057 50.7855 52.0405 48.4874 50.4311C47.5725 49.7904 45.992 48.5757 44.805 48.5757C40.6938 48.5757 36.988 50.9995 33.5762 53.0647C30.2183 55.0971 26.3033 55.8332 22.7407 53.8448C18.5369 51.4985 16.7267 46.3524 16.5416 41.7127C16.3492 36.8976 17.8674 31.2416 22.2522 28.7191C24.5292 27.4093 27.1036 27.2466 29.5894 27.982Z" fill="url(#paint0_linear_1288_3733)"/>
<path fill-rule="evenodd" clip-rule="evenodd" d="M38.7655 10.2925C-2.20469 7.60824 24.1219 10.1293 14.9495 22.2496C11.0429 27.4161 8.70903 33.898 8.70903 40.9633C8.70903 57.902 22.1659 71.6332 38.7655 71.6332C51.0556 71.6332 61.6215 64.1059 66.2798 53.3255C69.1856 47.549 70.936 39.1599 66.3302 28.8917C61.6912 18.2943 51.0795 11.1001 38.7655 10.2925ZM39.0803 5.29789C57.9335 6.53273 73.7284 21.0991 73.7284 40.9633C73.7284 60.6651 58.0733 76.6387 38.7655 76.6387C19.4593 76.6387 3.80409 60.6638 3.80409 40.9633C3.80409 33.0621 6.3342 25.4472 11.0665 19.1908C11.7672 18.2647 12.418 17.2621 12.0045 16.0851C11.0891 13.4831 9.15424 12.0863 10.3158 8.64713C11.7502 4.3997 16.4314 4.29562 20.0626 4.31554C26.3293 4.35023 32.8227 4.88799 39.0803 5.29789Z" fill="url(#paint1_linear_1288_3733)"/>
<path fill-rule="evenodd" clip-rule="evenodd" d="M229.98 56.423C224.188 56.423 219.111 51.6697 219.111 44.2352V44.1135C219.111 36.4956 224.008 31.9864 229.98 31.9864C235.713 31.9864 241.148 36.8612 241.148 44.1135V44.2352C241.148 51.4867 235.713 56.423 229.98 56.423ZM255.748 42.4036C256.352 36.1819 260.456 31.5623 265.889 31.5623C272.106 31.5623 275.366 36.6133 275.849 42.4036H255.748ZM266.795 61.1643C272.711 61.1643 276.514 58.762 279.653 55.1892L276.756 52.541C274.221 55.251 271.203 57.0371 266.916 57.0371C261.363 57.0371 256.594 53.1566 255.931 46.2585H280.68C280.74 45.7041 280.74 45.3344 280.74 44.7183C280.74 35.4172 275.428 27.9027 266.192 27.9027C257.56 27.9027 251.222 35.2942 251.222 44.4716V44.5953C251.222 54.4501 258.224 61.1643 266.795 61.1643ZM294.31 60.393H298.419L312.014 28.2691H306.999L296.425 54.7199L285.911 28.2691H280.774L294.31 60.393ZM325.114 60.7442C331.332 60.7442 336.222 57.2326 336.222 51.1951V51.1579C336.222 45.3626 330.97 43.4306 326.085 41.9351C321.871 40.6265 317.963 39.443 317.963 36.3894V36.2971C317.963 33.6837 320.286 31.7395 323.918 31.7395C326.896 31.7395 330.171 32.8937 333.03 34.7777L335.115 31.2526C331.958 29.1262 327.79 27.789 324.038 27.789C317.963 27.789 313.556 31.3748 313.556 36.7832V36.9064C313.556 42.8072 319.033 44.5457 323.963 45.9747C328.102 47.1539 331.815 48.3967 331.815 51.6257V51.6882C331.815 54.7683 329.098 56.7392 325.355 56.7392C321.673 56.7392 317.93 55.2607 314.549 52.6735L312.195 56.0618C315.696 58.957 320.646 60.7442 325.114 60.7442ZM229.102 60.6353C234.881 60.6353 238.593 57.3709 241.148 53.5524V59.7506H245.556V19.9169H241.148V34.211C238.714 30.6387 234.942 27.4356 229.102 27.4356C221.557 27.4356 214.074 33.5956 214.074 44.0046V44.1283C214.074 54.5992 221.557 60.6353 229.102 60.6353Z" fill="url(#paint2_linear_1288_3733)"/>
<path fill-rule="evenodd" clip-rule="evenodd" d="M138.42 60.8829C136.006 60.8829 133.762 60.4726 131.69 59.6512C129.617 58.8298 127.827 57.6592 126.317 56.1404C124.808 54.6205 123.631 52.8241 122.786 50.7503C121.941 48.6769 121.519 46.3669 121.519 43.8209V43.6976C121.519 41.3574 121.911 39.14 122.695 37.0455C123.48 34.9511 124.577 33.1233 125.985 31.5638C127.394 30.003 129.074 28.7708 131.026 27.8673C132.978 26.9645 135.141 26.5125 137.515 26.5125C140.212 26.5125 142.545 27.0049 144.517 27.991C146.489 28.9761 148.129 30.3007 149.437 31.9639C150.745 33.627 151.71 35.5366 152.334 37.6922C152.957 39.8478 153.27 42.0965 153.27 44.4369C153.27 44.8064 153.26 45.1964 153.24 45.6072C153.219 46.0176 153.19 46.4493 153.149 46.901H130.634C131.076 49.0362 131.992 50.6474 133.38 51.7359C134.768 52.8241 136.489 53.3684 138.541 53.3684C140.07 53.3684 141.438 53.1014 142.646 52.5673C143.853 52.0336 145.101 51.1715 146.388 49.9804L151.64 54.7229C150.111 56.6531 148.259 58.1627 146.086 59.2504C143.913 60.3386 141.358 60.8829 138.42 60.8829ZM144.047 41.1187C143.765 39.0248 143.041 37.3305 141.873 36.037C140.706 34.7435 139.157 34.0968 137.225 34.0968C135.294 34.0968 133.734 34.7333 132.547 36.0067C131.36 37.2796 130.585 38.9835 130.223 41.1187H144.047ZM156.148 26.9841H165.593V33.5043C166.495 31.2902 167.733 29.5202 169.304 28.1918C170.875 26.8634 172.996 26.2596 175.667 26.3808V35.9788H175.195C172.211 35.9788 169.863 36.9041 168.155 38.7558C166.446 40.6067 165.593 43.4843 165.593 47.3876V59.7506H156.148V26.9841ZM194.495 60.9879C191.982 60.9879 189.652 60.5431 187.504 59.6545C185.356 58.7647 183.502 57.5451 181.941 55.9938C180.381 54.4436 179.155 52.6235 178.264 50.5355C177.372 48.4469 176.926 46.2033 176.926 43.8048V43.6808C176.926 41.2821 177.372 39.0386 178.264 36.9506C179.155 34.8618 180.391 33.0315 181.971 31.4607C183.552 29.8891 185.416 28.6478 187.565 27.738C189.712 26.8288 192.063 26.3738 194.617 26.3738C197.129 26.3738 199.459 26.8185 201.607 27.7072C203.755 28.5969 205.61 29.8166 207.17 31.3678C208.73 32.918 209.956 34.738 210.847 36.8261C211.739 38.9146 212.185 41.1583 212.185 43.5568V43.6808C212.185 46.0796 211.739 48.323 210.847 50.411C209.956 52.4999 208.72 54.3294 207.14 55.901C205.559 57.4725 203.695 58.7138 201.546 59.6228C199.399 60.5329 197.048 60.9879 194.495 60.9879ZM194.301 52.85C195.637 52.85 196.821 52.6123 197.853 52.1374C198.885 51.6623 199.766 51.0118 200.494 50.1859C201.223 49.3598 201.779 48.3998 202.163 47.305C202.549 46.2103 202.741 45.0441 202.741 43.8046V43.6808C202.741 42.4421 202.539 41.2748 202.133 40.1803C201.729 39.0855 201.141 38.1153 200.373 37.2685C199.603 36.422 198.693 35.7512 197.641 35.255C196.588 34.7596 195.435 34.5117 194.18 34.5117C192.844 34.5117 191.66 34.7493 190.629 35.2242C189.596 35.6992 188.716 36.3497 187.987 37.1757C187.259 38.0019 186.702 38.9619 186.317 40.0566C185.933 41.1513 185.741 42.3175 185.741 43.5571V43.6808C185.741 44.9196 185.943 46.0868 186.348 47.1813C186.753 48.2753 187.34 49.2463 188.109 50.0931C188.878 50.9395 189.778 51.6104 190.811 52.1065C191.842 52.602 193.006 52.85 194.301 52.85ZM97.5926 19.9169V32.1006C98.124 31.3919 98.7058 30.7248 99.3398 30.0781C99.9732 29.4414 100.677 28.8769 101.454 28.3735C102.23 27.8808 103.089 27.4911 104.028 27.1927C104.968 26.9053 106.03 26.762 107.215 26.762C110.77 26.762 113.518 27.8502 115.459 30.0264C117.399 32.203 118.37 35.2003 118.37 39.0198V60.393H108.926V42.0171C108.926 39.8099 108.441 38.1364 107.471 37.0179C106.502 35.8885 105.129 35.3241 103.35 35.3241C101.573 35.3241 100.168 35.8885 99.1383 37.0179C98.1076 38.1364 97.5926 39.8099 97.5926 42.0171V59.7506H88.1481V19.9169H97.5926Z" fill="white"/>
<defs>
<linearGradient id="paint0_linear_1288_3733" x1="16.5255" y1="42.3371" x2="67.7228" y2="41.884" gradientUnits="userSpaceOnUse">
<stop stop-color="#F926E1"/>
<stop offset="1" stop-color="#2AB5FB"/>
</linearGradient>
<linearGradient id="paint1_linear_1288_3733" x1="3.80409" y1="43.2581" x2="73.7397" y2="42.937" gradientUnits="userSpaceOnUse">
<stop stop-color="#F926E1"/>
<stop offset="1" stop-color="#2AB5FB"/>
</linearGradient>
<linearGradient id="paint2_linear_1288_3733" x1="214.074" y1="42.127" x2="336.22" y2="40.4096" gradientUnits="userSpaceOnUse">
<stop stop-color="#F926E1"/>
<stop offset="1" stop-color="#2AB5FB"/>
</linearGradient>
</defs>
</svg>
